<svg width="200" height="60" viewBox="0 0 200 60" xmlns="http://www.w3.org/2000/svg">
  <!-- Exact BiomixX Logo - Flowing Ribbon Design -->
  <defs>
    <!-- Deep rich blue gradient -->
    <linearGradient id="deepBlue" x1="0%" y1="100%" x2="100%" y2="0%">
      <stop offset="0%" style="stop-color:#1e3a8a;stop-opacity:1" />
      <stop offset="50%" style="stop-color:#2563eb;stop-opacity:1" />
      <stop offset="100%" style="stop-color:#3b82f6;stop-opacity:1" />
    </linearGradient>
    
    <!-- Medium blue gradient -->
    <linearGradient id="mediumBlue" x1="0%" y1="100%" x2="100%" y2="0%">
      <stop offset="0%" style="stop-color:#2563eb;stop-opacity:1" />
      <stop offset="50%" style="stop-color:#3b82f6;stop-opacity:1" />
      <stop offset="100%" style="stop-color:#60a5fa;stop-opacity:1" />
    </linearGradient>
    
    <!-- Bright teal gradient -->
    <linearGradient id="brightTeal" x1="0%" y1="100%" x2="100%" y2="0%">
      <stop offset="0%" style="stop-color:#0d9488;stop-opacity:1" />
      <stop offset="50%" style="stop-color:#14b8a6;stop-opacity:1" />
      <stop offset="100%" style="stop-color:#5eead4;stop-opacity:1" />
    </linearGradient>
    
    <!-- Light cyan gradient -->
    <linearGradient id="lightCyan" x1="0%" y1="100%" x2="100%" y2="0%">
      <stop offset="0%" style="stop-color:#0891b2;stop-opacity:1" />
      <stop offset="50%" style="stop-color:#06b6d4;stop-opacity:1" />
      <stop offset="100%" style="stop-color:#67e8f9;stop-opacity:1" />
    </linearGradient>
    
    <!-- Very light blue gradient -->
    <linearGradient id="veryLightBlue" x1="0%" y1="100%" x2="100%" y2="0%">
      <stop offset="0%" style="stop-color:#0ea5e9;stop-opacity:1" />
      <stop offset="50%" style="stop-color:#38bdf8;stop-opacity:1" />
      <stop offset="100%" style="stop-color:#7dd3fc;stop-opacity:1" />
    </linearGradient>
  </defs>
  
  <!-- Lower Section - Wide ribbon base (deep blue) -->
  <path d="M15 55 Q25 50 Q35 40 Q30 30 Q35 20 Q30 15 Q35 10" 
        fill="url(#deepBlue)" stroke="none"/>
  
  <!-- Middle Section - Intertwining ribbon (medium blue to teal) -->
  <path d="M20 52 Q30 47 Q40 37 Q35 27 Q40 17 Q35 12 Q40 7" 
        fill="url(#mediumBlue)" stroke="none"/>
  
  <!-- Upper Section - Bright teal ribbon -->
  <path d="M25 48 Q35 43 Q45 33 Q40 23 Q45 13 Q40 8 Q45 3" 
        fill="url(#brightTeal)" stroke="none"/>
  
  <!-- Light cyan ribbon -->
  <path d="M30 45 Q40 40 Q50 30 Q45 20 Q50 10 Q45 5 Q50 0" 
        fill="url(#lightCyan)" stroke="none"/>
  
  <!-- Fragmented top elements - rectangular/parallelogram pieces -->
  <!-- First fragment -->
  <path d="M35 15 L45 10 L50 15 L40 20 Z" 
        fill="url(#veryLightBlue)" stroke="none"/>
  
  <!-- Second fragment -->
  <path d="M40 10 L50 5 L55 10 L45 15 Z" 
        fill="url(#veryLightBlue)" stroke="none"/>
  
  <!-- Third fragment -->
  <path d="M45 5 L55 0 L60 5 L50 10 Z" 
        fill="url(#veryLightBlue)" stroke="none"/>
  
  <!-- Fourth fragment -->
  <path d="M50 0 L60 -5 L65 0 L55 5 Z" 
        fill="url(#veryLightBlue)" stroke="none"/>
</svg>